<?xml version="1.0" encoding="utf-8"?>
<!-- Generator: Adobe Illustrator 21.0.2, SVG Export Plug-In . SVG Version: 6.00 Build 0)  -->
<svg version="1.1" id="Layer_1" xmlns="http://www.w3.org/2000/svg" xmlns:xlink="http://www.w3.org/1999/xlink" x="0px" y="0px"
	 viewBox="0 0 25 25" style="enable-background:new 0 0 25 25;" xml:space="preserve">
<style type="text/css">
	.st0{fill:#C1272D;}
</style>
<g>
	<path class="st0" d="M12.5,24.6c-6.7,0-12.1-5.4-12.1-12.1S5.8,0.4,12.5,0.4s12.1,5.4,12.1,12.1S19.2,24.6,12.5,24.6z"/>
	<path d="M12.5,0.7C19,0.7,24.3,6,24.3,12.5S19,24.3,12.5,24.3S0.7,19,0.7,12.5S6,0.7,12.5,0.7 M12.5,0C5.6,0,0,5.6,0,12.5
		S5.6,25,12.5,25S25,19.4,25,12.5S19.4,0,12.5,0L12.5,0z"/>
</g>
</svg>
